<svg id="Calque_1" data-name="Calque 1" xmlns="http://www.w3.org/2000/svg" viewBox="0 0 461.28 228.18"><defs><style>.cls-1{fill:#1d1d1b;}.cls-2{fill:#FFB100;}</style></defs><path class="cls-1" d="M21.8,98H57.62v17.28H0V6.54H21.8Z"/><path class="cls-1" d="M151.05,78.64H88q.78,9.35,6.54,14.64a20.17,20.17,0,0,0,14.17,5.29q12.15,0,17.29-10.43h23.51a39.27,39.27,0,0,1-14.33,20.47q-10.59,8-26,8a45,45,0,0,1-22.35-5.53A38.8,38.8,0,0,1,71.4,95.46,47.93,47.93,0,0,1,65.87,72.1q0-13.39,5.45-23.52A38.09,38.09,0,0,1,86.58,33a45.76,45.76,0,0,1,22.58-5.45,45.34,45.34,0,0,1,22,5.3,37.29,37.29,0,0,1,15.11,15,45.51,45.51,0,0,1,5.37,22.35A52.1,52.1,0,0,1,151.05,78.64ZM129.09,64A17.29,17.29,0,0,0,123,50.53a21.56,21.56,0,0,0-14.48-5.06,19.74,19.74,0,0,0-13.63,4.91Q89.38,55.27,88.14,64Z"/><path class="cls-1" d="M167.16,48.58A38.33,38.33,0,0,1,181.33,33a37.76,37.76,0,0,1,20-5.45,35.11,35.11,0,0,1,16.9,3.9,34.26,34.26,0,0,1,11.6,9.81V29h21.95v86.27H229.84V102.62a32.41,32.41,0,0,1-11.6,10,35.47,35.47,0,0,1-17.05,4,36.73,36.73,0,0,1-19.86-5.6,39.27,39.27,0,0,1-14.17-15.81A50.72,50.72,0,0,1,162,71.79,49.94,49.94,0,0,1,167.16,48.58Zm59.56,9.89a22,22,0,0,0-8.4-8.72,22.52,22.52,0,0,0-11.37-3,21.85,21.85,0,0,0-19.54,11.6,27.06,27.06,0,0,0-3.2,13.47,27.92,27.92,0,0,0,3.2,13.62,23,23,0,0,0,8.4,9A21.43,21.43,0,0,0,207,97.48a22.43,22.43,0,0,0,11.37-3,21.93,21.93,0,0,0,8.4-8.72,27.91,27.91,0,0,0,3.12-13.62A27.93,27.93,0,0,0,226.72,58.47Z"/><path class="cls-1" d="M272.74,48.58a37.61,37.61,0,0,1,34.33-21,36.61,36.61,0,0,1,16,3.66A32.13,32.13,0,0,1,335.26,41V0h22.11V115.23H335.26V102.46a29.49,29.49,0,0,1-11.37,10.28,35.68,35.68,0,0,1-17,3.89A37.09,37.09,0,0,1,287,111a39,39,0,0,1-14.25-15.81,50.72,50.72,0,0,1-5.22-23.43A49.94,49.94,0,0,1,272.74,48.58Zm59.56,9.89a22,22,0,0,0-8.41-8.72,22.52,22.52,0,0,0-11.37-3,22.12,22.12,0,0,0-11.21,3A22.4,22.4,0,0,0,293,58.32a27.06,27.06,0,0,0-3.19,13.47A27.92,27.92,0,0,0,293,85.41a23,23,0,0,0,8.41,9,21.42,21.42,0,0,0,11.13,3.11,22.43,22.43,0,0,0,11.37-3,22,22,0,0,0,8.41-8.72,27.91,27.91,0,0,0,3.12-13.62A27.93,27.93,0,0,0,332.3,58.47Z"/><path class="cls-2" d="M357.58,119.49V228.18H335.77V119.49Z"/><path class="cls-2" d="M451.79,150.4q9.49,9.73,9.49,27.17v50.61h-21.8V180.53q0-10.28-5.14-15.81t-14-5.52q-9,0-14.25,5.52t-5.21,15.81v47.65H379.06V141.91h21.81v10.75a30,30,0,0,1,11.13-8.8,34.42,34.42,0,0,1,14.87-3.19Q442.29,140.67,451.79,150.4Z"/></svg>